<?xml version="1.0" standalone="no"?>
<!DOCTYPE svg PUBLIC "-//W3C//DTD SVG 20010904//EN"
 "http://www.w3.org/TR/2001/REC-SVG-20010904/DTD/svg10.dtd">
<svg version="1.0" xmlns="http://www.w3.org/2000/svg"
 width="604.000000pt" height="566.000000pt" viewBox="0 0 604.000000 566.000000"
 preserveAspectRatio="xMidYMid meet">

<g transform="translate(0.000000,566.000000) scale(0.100000,-0.100000)"
fill="#000000" stroke="none">
<path d="M3785 4480 c-173 -19 -299 -54 -735 -200 -314 -104 -532 -163 -669
-180 -86 -10 -121 -27 -121 -59 0 -37 53 -126 105 -176 68 -66 160 -112 271
-134 l84 -16 -93 -145 c-398 -617 -801 -1387 -1052 -2010 -229 -569 -245 -720
-96 -939 127 -186 308 -320 484 -358 174 -37 503 15 779 123 385 151 724 394
878 631 152 232 185 535 80 732 -60 113 -173 227 -287 292 -24 13 -43 26 -43
29 1 3 40 23 88 45 406 187 842 566 1035 900 167 287 208 610 121 937 -40 150
-94 249 -188 344 -91 92 -180 141 -301 167 -88 20 -249 28 -340 17z m446 -455
c54 -19 102 -62 132 -119 19 -35 22 -57 21 -146 0 -92 -4 -115 -31 -187 -66
-174 -177 -327 -375 -518 -354 -342 -844 -606 -1419 -766 -60 -16 -114 -29
-120 -27 -5 2 85 163 199 358 404 689 476 847 497 1087 l7 81 252 86 c332 113
399 132 606 170 47 9 185 -2 231 -19z m-1921 -2126 c102 -32 247 -35 415 -9
213 33 275 35 387 12 218 -45 322 -135 321 -277 -2 -191 -214 -453 -538 -665
-97 -63 -349 -188 -465 -231 -234 -85 -494 -129 -572 -96 -95 40 -100 132 -20
367 74 219 150 399 284 673 67 136 122 247 122 247 1 0 30 -10 66 -21z"/>
</g>
</svg>
